<svg width="403" height="879" viewBox="0 0 403 879" fill="none" xmlns="http://www.w3.org/2000/svg">
<path d="M177.755 787C137.589 787 54.4554 795.9 43.2554 831.5C32.0554 867.1 164.589 877 232.255 877.5C274.755 875 359.555 861.7 358.755 828.5C357.955 795.3 274.089 787 232.255 787M177.755 787C172.756 808.5 156.755 813.5 153.755 814M177.755 787C181.755 778.667 188.555 735.2 183.755 628C177.755 494 192.755 483 140.755 464C99.1553 448.8 69.7553 428.667 60.2553 420.5C36.2553 401.333 -8.54467 337.3 4.25533 234.5C20.2553 106 29.2556 71.5 39.7555 28M232.255 787C236.655 807 249.755 814.667 255.755 816M232.255 787C228.089 778.5 220.755 734.8 224.755 628C229.755 494.5 226.755 475 266.755 464C298.755 455.2 331.422 431.333 343.755 420.5C367.422 401.333 411.555 337.3 398.755 234.5C385.955 131.7 369.755 54 363.255 28M363.255 28C362.589 19.3333 329.955 2 204.755 2C79.5555 2 42.5888 19.3333 39.7555 28M363.255 28C369.089 37.6667 345.555 57.3 204.755 58.5C63.9555 59.7 36.0888 38.6667 39.7555 28M16.7554 270.5C12.5888 326.167 44.3556 441.3 204.755 456.5C266.255 454.5 389.255 414.5 389.255 270.5M16.7554 270.5C21.0888 283.167 64.7556 308 204.755 306C344.755 304 386.089 281.5 389.255 270.5M16.7554 270.5C18.2554 257.333 57.9554 231.7 204.755 234.5C351.556 237.3 388.922 259.667 389.255 270.5" stroke="black" stroke-width="3"/>
<path d="M300.431 170.851C301.25 168.929 304.072 164.872 308.811 164.012C314.735 162.936 317.127 161.7 316.598 156.225C316.174 151.846 310.46 151.629 307.655 152.067C305.662 152.075 303.059 152.514 300.271 153.62C293.224 156.416 284.998 163.478 282.474 178.616C282.39 179.117 282.313 179.627 282.242 180.146C282.279 183.993 282.422 192.385 282.691 195.172C282.961 197.959 305.472 326.757 316.694 390.807C320.755 401.633 335.67 421.823 362.833 415.98C389.996 410.136 397.483 388.179 397.831 377.932L361.372 172.488C359.792 164.436 352.55 148.828 336.222 150.81C336.427 151.903 336.527 153.065 336.505 154.299C336.437 157.963 335.778 161.212 334.591 164.028C340.149 166.002 348.449 168.715 349.605 180.66C350.761 192.604 341.182 202.07 319.824 205.142C298.468 208.213 296.659 199.348 294.748 189.989L294.748 189.987C293.22 182.499 297.9 174.11 300.431 170.851Z" fill="#FFAE00"/>
<path d="M300.431 170.851C306.622 176.681 309.335 177.797 316.084 176.871C325.006 175.646 331.541 171.267 334.591 164.028C335.778 161.212 336.437 157.963 336.505 154.299C336.527 153.065 336.427 151.903 336.222 150.81C334.681 142.63 327.205 138.337 320.773 137.078L316.261 90.452C314.57 74.7083 305.533 43.9691 282.917 46.9616C254.645 50.7021 265 48.6954 264.005 48.7917C263.01 48.888 255.143 50.654 249.444 59.2429L269.351 57.3164C287.37 60.797 293.533 82.2698 294.363 92.5711L297.59 125.915C297.975 129.897 301.539 135.58 303.273 137.924C298.829 145.989 299.42 151.749 300.271 153.62C303.059 152.514 305.662 152.075 307.655 152.067C310.46 151.629 316.174 151.846 316.598 156.225C317.127 161.7 314.735 162.936 308.811 164.012C304.072 164.872 301.25 168.929 300.431 170.851Z" fill="#FFAE00"/>
<path d="M315.715 136.72C317.211 136.608 318.95 136.721 320.773 137.078M300.431 170.851C306.622 176.681 309.335 177.797 316.084 176.871C325.006 175.646 331.541 171.267 334.591 164.028M300.431 170.851C301.25 168.929 304.072 164.872 308.811 164.012C314.735 162.936 317.127 161.7 316.598 156.225C316.174 151.846 310.46 151.629 307.655 152.067C305.662 152.075 303.059 152.514 300.271 153.62M300.431 170.851C297.9 174.11 293.22 182.499 294.748 189.987L294.748 189.989C296.659 199.348 298.468 208.213 319.824 205.142C341.182 202.07 350.761 192.604 349.605 180.66C348.449 168.715 340.149 166.002 334.591 164.028M336.222 150.81C336.427 151.903 336.527 153.065 336.505 154.299C336.437 157.963 335.778 161.212 334.591 164.028M336.222 150.81C352.55 148.828 359.792 164.436 361.372 172.488L397.831 377.932C397.483 388.179 389.996 410.136 362.833 415.98C335.67 421.823 320.755 401.633 316.694 390.807C305.472 326.757 282.961 197.959 282.691 195.172C282.422 192.385 282.279 183.993 282.242 180.146C282.313 179.627 282.39 179.117 282.474 178.616M336.222 150.81C334.681 142.63 327.205 138.337 320.773 137.078M300.271 153.62C299.42 151.749 298.829 145.989 303.273 137.924C301.539 135.58 297.975 129.897 297.59 125.915M300.271 153.62C293.224 156.416 284.998 163.478 282.474 178.616M297.59 125.915C297.204 121.934 295.278 102.027 294.363 92.5711M297.59 125.915L294.363 92.5711M294.363 92.5711C293.533 82.2698 287.37 60.797 269.351 57.3164L249.444 59.2429M249.444 59.2429C247.624 62.9353 244.348 71.993 245.799 78.6843C245.799 78.6843 246.965 86.5938 248.057 87.4929C248.057 87.4929 251.139 101.677 260.617 112.414C270.096 123.151 273.407 132.107 273.878 135.243L277.057 168.089C277.2 170.42 278.485 175.787 282.474 178.616M249.444 59.2429C255.143 50.654 263.01 48.888 264.005 48.7917C265 48.6954 254.645 50.7021 282.917 46.9616C305.533 43.9691 314.57 74.7083 316.261 90.452L320.773 137.078" stroke="black" stroke-width="4" stroke-linecap="round"/>
</svg>
